<svg height="24" viewBox="0 -960 960 960" width="24" fill="#e3e3e3" xmlns="http://www.w3.org/2000/svg"><path style="stroke-width:1.14591" d="M388.125-937.422v91.485H296.25c-13.014 0-23.93 4.357-32.734 13.125-8.804 8.767-13.204 19.696-13.204 32.656V-68.36c0 12.96 4.4 23.889 13.204 32.656s19.72 13.125 32.734 13.125h322.11A240 240 0 0 1 480-240a240 240 0 0 1 63.047-162.11h-200.86v-352.343h275.626v297.266a240 240 0 0 1 91.875-22.579v-320.39c0-12.96-4.4-23.89-13.204-32.657s-19.72-13.125-32.734-13.125h-91.875v-91.484z"/><path d="M700-80v-120H600l140-200v120h100z"/></svg>