<?xml version="1.0" encoding="UTF-8" standalone="no"?>
<svg
   height="24px"
   viewBox="0 -960 960 960"
   width="24px"
   fill="#e3e3e3"
   version="1.1"
   id="svg1"
   sodipodi:docname="battery_10.svg"
   inkscape:version="1.4.3 (0d15f75042, 2025-12-25)"
   xmlns:inkscape="http://www.inkscape.org/namespaces/inkscape"
   xmlns:sodipodi="http://sodipodi.sourceforge.net/DTD/sodipodi-0.dtd"
   xmlns="http://www.w3.org/2000/svg"
   xmlns:svg="http://www.w3.org/2000/svg">
  <defs
     id="defs1" />
  <sodipodi:namedview
     id="namedview1"
     pagecolor="#ffffff"
     bordercolor="#000000"
     borderopacity="0.25"
     inkscape:showpageshadow="2"
     inkscape:pageopacity="0.0"
     inkscape:pagecheckerboard="0"
     inkscape:deskcolor="#d1d1d1"
     showgrid="false"
     inkscape:zoom="22.627417"
     inkscape:cx="11.645165"
     inkscape:cy="12.59534"
     inkscape:window-width="1268"
     inkscape:window-height="1401"
     inkscape:window-x="0"
     inkscape:window-y="0"
     inkscape:window-maximized="1"
     inkscape:current-layer="svg1" />
  <path
     id="path1"
     style="stroke-width:1.14591"
     d="m 388.125,-937.42188 v 91.48438 H 296.25 c -13.01423,0 -23.93063,4.35795 -32.73438,13.125 -8.80374,8.76705 -13.20312,19.69627 -13.20312,32.65625 v 731.796875 c 0,12.959981 4.39938,23.889204 13.20312,32.65625 8.80375,8.767045 19.72015,13.125 32.73438,13.125 h 367.5 c 13.01423,0 23.93063,-4.357955 32.73438,-13.125 8.80373,-8.767046 13.20312,-19.696269 13.20312,-32.65625 V -800.15625 c 0,-12.95998 -4.39938,-23.8892 -13.20312,-32.65625 -8.80374,-8.76705 -19.72015,-13.125 -32.73438,-13.125 h -91.875 v -91.48438 z m -45.9375,182.96876 h 275.625 v 576.01562 h -275.625 z"
     sodipodi:nodetypes="ccsssssssssssscccccccc" />
</svg>
