<svg width="24px" height="24px" fill="#e3e3e3" version="1.1" viewBox="0 -960 960 960" xmlns="http://www.w3.org/2000/svg">
 <path d="m400-880v80h-80c-11.333 0-20.849 3.8177-28.516 11.484-7.6667 7.6667-11.484 17.182-11.484 28.516v640c0 11.333 3.8177 20.849 11.484 28.516 7.6667 7.6667 17.182 11.484 28.516 11.484h218.05a242.14 242.14 0 0 1-47.969-80h-130.08v-560h240v266.33a242.14 242.14 0 0 1 80-27.656v-278.67c0-11.333-3.8177-20.849-11.484-28.516-7.6667-7.6667-17.182-11.484-28.516-11.484h-80v-80h-160z"/>
 <path d="m697.86-82.141v-120h-100l140-200v120h100z"/>
</svg>
