<?xml version="1.0" encoding="UTF-8" standalone="no"?>
<svg
   height="24px"
   viewBox="0 -960 960 960"
   width="24px"
   fill="#e3e3e3"
   version="1.1"
   id="svg1"
   sodipodi:docname="battery_60.svg"
   inkscape:version="1.4.3 (0d15f75042, 2025-12-25)"
   xmlns:inkscape="http://www.inkscape.org/namespaces/inkscape"
   xmlns:sodipodi="http://sodipodi.sourceforge.net/DTD/sodipodi-0.dtd"
   xmlns="http://www.w3.org/2000/svg"
   xmlns:svg="http://www.w3.org/2000/svg">
  <defs
     id="defs1" />
  <sodipodi:namedview
     id="namedview1"
     pagecolor="#ffffff"
     bordercolor="#000000"
     borderopacity="0.25"
     inkscape:showpageshadow="2"
     inkscape:pageopacity="0.0"
     inkscape:pagecheckerboard="0"
     inkscape:deskcolor="#d1d1d1"
     showgrid="false"
     inkscape:zoom="22.627417"
     inkscape:cx="13.854873"
     inkscape:cy="18.252194"
     inkscape:window-width="1268"
     inkscape:window-height="1401"
     inkscape:window-x="0"
     inkscape:window-y="0"
     inkscape:window-maximized="1"
     inkscape:current-layer="svg1" />
  <path
     id="path1"
     style="stroke-width:1.14591"
     d="M 388.125 -937.42188 L 388.125 -845.9375 L 296.25 -845.9375 C 283.23577 -845.9375 272.31939 -841.57955 263.51562 -832.8125 C 254.71188 -824.04545 250.3125 -813.11623 250.3125 -800.15625 L 250.3125 -68.359375 C 250.3125 -55.399394 254.71188 -44.470171 263.51562 -35.703125 C 272.31939 -26.93608 283.23577 -22.578125 296.25 -22.578125 L 663.75 -22.578125 C 676.76423 -22.578125 687.68061 -26.93608 696.48438 -35.703125 C 705.28811 -44.470171 709.6875 -55.399394 709.6875 -68.359375 L 709.6875 -800.15625 C 709.6875 -813.11623 705.28812 -824.04545 696.48438 -832.8125 C 687.68064 -841.57955 676.76423 -845.9375 663.75 -845.9375 L 571.875 -845.9375 L 571.875 -937.42188 L 388.125 -937.42188 z M 342.1875 -754.45312 L 617.8125 -754.45312 L 617.8125 -498.4375 L 342.1875 -498.4375 L 342.1875 -754.45312 z " />
</svg>
