<?xml version="1.0" encoding="UTF-8" standalone="no"?>
<svg
   height="24"
   viewBox="0 -960 960 960"
   width="24"
   fill="#e3e3e3"
   version="1.1"
   id="svg1"
   sodipodi:docname="placeholder.svg"
   inkscape:version="1.4.4 (dcaf3e7d9e, 2026-05-05)"
   xmlns:inkscape="http://www.inkscape.org/namespaces/inkscape"
   xmlns:sodipodi="http://sodipodi.sourceforge.net/DTD/sodipodi-0.dtd"
   xmlns="http://www.w3.org/2000/svg"
   xmlns:svg="http://www.w3.org/2000/svg">
  <defs
     id="defs1" />
  <sodipodi:namedview
     id="namedview1"
     pagecolor="#ffffff"
     bordercolor="#000000"
     borderopacity="0.25"
     inkscape:showpageshadow="2"
     inkscape:pageopacity="0.0"
     inkscape:pagecheckerboard="0"
     inkscape:deskcolor="#d1d1d1"
     inkscape:zoom="19.395833"
     inkscape:cx="11.574651"
     inkscape:cy="14.204082"
     inkscape:window-width="1268"
     inkscape:window-height="1400"
     inkscape:window-x="0"
     inkscape:window-y="0"
     inkscape:window-maximized="1"
     inkscape:current-layer="svg1" />
  <path
     d="m 480.5,-120 q -91,0 -158.5,-57.5 -67.5,-57.5 -78.5,-146.5 -72,-14 -117.5,-70 -45.5,-56 -45.5,-128 0,-83 58.5,-140.5 58.5,-57.5 141.5,-57.5 h 100 q 8,0 14,-6 6,-6 6,-14 0,-8 -6,-14 -6,-6 -14,-6 h -60 q -17,0 -28.5,-11.5 -11.5,-11.5 -11.5,-28.5 0,-17 11.5,-28.5 11.5,-11.5 28.5,-11.5 h 60 q 42,0 71,29 29,29 29,71 0,42 -29,71 -29,29 -71,29 h -100 q -50,0 -85,34 -35,34 -35,83 0,40 23,72.5 23,32.5 61,44.5 16,-85 81.5,-139.5 65.5,-54.5 152.5,-54.5 20,0 39.5,3 19.5,3 36.5,8 8,-3 15.5,-5 7.5,-2 15.5,-3.5 8,-1.5 17,-2 9,-0.5 18,-0.5 73,0 126,51 53,51 53,126 0,9 -0.5,16 -0.5,7 -2.5,11 l 38,35 q 23,20 34,46.5 11,26.5 11,55.5 0,58 -40.5,98.5 -40.5,40.5 -97.5,40.5 z m 0,-80 h 261 q 24,0 41.5,-17.5 17.5,-17.5 17.5,-41.5 0,-13 -5,-24 -5,-11 -14,-19 l -75,-68 q 8,-11 11,-24 3,-13 3,-27 0,-42 -29,-70.5 -29,-28.5 -71,-28.5 -42,0 -71,29 -29,29 -29,71 0,20 7,38.5 7,18.5 22,32.5 l -56,56 q -28,-23 -40.5,-58 -12.5,-35 -12.5,-72 0,-26 7,-50 7,-24 21,-46 -60,0 -104,47 -44,47 -44,112 0,33 12.5,62.5 12.5,29.5 34.5,51 22,21.5 51,34 29,12.5 62,12.5 z m 200,-40 q -17,0 -28.5,-11.5 -11.5,-11.5 -11.5,-28.5 0,-17 11.5,-28.5 11.5,-11.5 28.5,-11.5 17,0 28.5,11.5 11.5,11.5 11.5,28.5 0,17 -11.5,28.5 -11.5,11.5 -28.5,11.5 z m -120,-160 z"
     id="path1-5" />
</svg>
